<svg id="visual" viewBox="0 0 900 600" width="900" height="600" xmlns="http://www.w3.org/2000/svg" xmlns:xlink="http://www.w3.org/1999/xlink" version="1.1"><rect x="0" y="0" width="900" height="600" fill="#001220"></rect><defs><linearGradient id="grad1_0" x1="33.3%" y1="0%" x2="100%" y2="100%"><stop offset="20%" stop-color="#dffa3c" stop-opacity="1"></stop><stop offset="80%" stop-color="#dffa3c" stop-opacity="1"></stop></linearGradient></defs><defs><linearGradient id="grad1_1" x1="33.3%" y1="0%" x2="100%" y2="100%"><stop offset="20%" stop-color="#dffa3c" stop-opacity="1"></stop><stop offset="80%" stop-color="#001220" stop-opacity="1"></stop></linearGradient></defs><defs><linearGradient id="grad2_0" x1="0%" y1="0%" x2="66.7%" y2="100%"><stop offset="20%" stop-color="#dffa3c" stop-opacity="1"></stop><stop offset="80%" stop-color="#dffa3c" stop-opacity="1"></stop></linearGradient></defs><defs><linearGradient id="grad2_1" x1="0%" y1="0%" x2="66.7%" y2="100%"><stop offset="20%" stop-color="#001220" stop-opacity="1"></stop><stop offset="80%" stop-color="#dffa3c" stop-opacity="1"></stop></linearGradient></defs><g transform="translate(900, 0)"><path d="M0 486.7C-45.7 433.3 -91.5 379.9 -149.2 360.3C-207 340.7 -276.8 354.9 -331.6 331.6C-386.5 308.4 -426.3 247.8 -449.7 186.3C-473.1 124.8 -479.9 62.4 -486.7 0L0 0Z" fill="#00897e"></path><path d="M0 243.4C-22.9 216.7 -45.7 190 -74.6 180.2C-103.5 170.3 -138.4 177.4 -165.8 165.8C-193.2 154.2 -213.2 123.9 -224.8 93.1C-236.5 62.4 -240 31.2 -243.4 0L0 0Z" fill="#dffa3c"></path></g><g transform="translate(0, 600)"><path d="M0 -486.7C60.2 -446.9 120.4 -407.1 148.1 -357.5C175.8 -308 171.2 -248.8 226.3 -226.3C281.4 -203.7 396.3 -217.9 449.7 -186.3C503.1 -154.7 494.9 -77.3 486.7 0L0 0Z" fill="#00897e"></path><path d="M0 -243.4C30.1 -223.5 60.2 -203.5 74 -178.8C87.9 -154 85.6 -124.4 113.1 -113.1C140.7 -101.9 198.2 -108.9 224.8 -93.1C251.5 -77.3 247.5 -38.7 243.4 0L0 0Z" fill="#dffa3c"></path></g></svg>